<svg xmlns="http://www.w3.org/2000/svg" xmlns:xlink="http://www.w3.org/1999/xlink" width="500" zoomAndPan="magnify" viewBox="0 0 375 374.999991" height="500" preserveAspectRatio="xMidYMid meet" version="1.2"><defs><clipPath id="ebb62163f3"><path d="M 82.425781 173.113281 L 110.925781 173.113281 L 110.925781 201.613281 L 82.425781 201.613281 Z M 82.425781 173.113281 "/></clipPath><clipPath id="99bf1793c8"><path d="M 263.769531 173.113281 L 292.269531 173.113281 L 292.269531 201.613281 L 263.769531 201.613281 Z M 263.769531 173.113281 "/></clipPath><clipPath id="fb02b1a51b"><path d="M 210 158 L 246.980469 158 L 246.980469 218 L 210 218 Z M 210 158 "/></clipPath><clipPath id="51101860b2"><path d="M 169 146 L 206 146 L 206 229.660156 L 169 229.660156 Z M 169 146 "/></clipPath></defs><g id="cadbc50861"><g clip-rule="nonzero" clip-path="url(#ebb62163f3)"><path style=" stroke:none;fill-rule:nonzero;fill:#ff8888;fill-opacity:1;" d="M 96.675781 173.113281 C 95.289062 184.847656 94.160156 185.972656 82.425781 187.363281 C 82.449219 187.363281 82.476562 187.367188 82.5 187.371094 C 94.167969 188.753906 95.289062 189.902344 96.675781 201.613281 C 98.066406 189.875 99.191406 188.75 110.925781 187.363281 C 99.191406 185.972656 98.066406 184.847656 96.675781 173.113281 Z M 96.675781 173.113281 "/></g><g clip-rule="nonzero" clip-path="url(#99bf1793c8)"><path style=" stroke:none;fill-rule:nonzero;fill:#ff8888;fill-opacity:1;" d="M 278.019531 173.113281 C 276.632812 184.847656 275.507812 185.972656 263.769531 187.363281 C 263.796875 187.363281 263.820312 187.367188 263.84375 187.371094 C 275.511719 188.753906 276.632812 189.902344 278.019531 201.613281 C 279.410156 189.875 280.535156 188.75 292.269531 187.363281 C 280.535156 185.972656 279.410156 184.847656 278.019531 173.113281 Z M 278.019531 173.113281 "/></g><path style=" stroke:none;fill-rule:nonzero;fill:#ff8888;fill-opacity:1;" d="M 157.960938 217.378906 C 156.199219 217.378906 155.023438 216.789062 153.847656 215.613281 L 130.332031 192.101562 C 127.980469 189.75 127.980469 186.222656 130.332031 183.871094 L 153.847656 160.355469 C 156.199219 158.003906 159.726562 158.003906 162.078125 160.355469 C 164.429688 162.707031 164.429688 166.234375 162.078125 168.585938 L 142.675781 187.984375 L 162.078125 207.386719 C 164.429688 209.738281 164.429688 213.261719 162.078125 215.613281 C 160.902344 216.789062 159.726562 217.378906 157.960938 217.378906 Z M 157.960938 217.378906 "/><g clip-rule="nonzero" clip-path="url(#fb02b1a51b)"><path style=" stroke:none;fill-rule:nonzero;fill:#ff8888;fill-opacity:1;" d="M 216.746094 217.378906 C 214.984375 217.378906 213.808594 216.789062 212.632812 215.613281 C 210.28125 213.261719 210.28125 209.738281 212.632812 207.386719 L 232.03125 187.984375 L 212.632812 168.585938 C 210.28125 166.234375 210.28125 162.707031 212.632812 160.355469 C 214.984375 158.003906 218.511719 158.003906 220.863281 160.355469 L 244.375 183.871094 C 246.726562 186.222656 246.726562 189.75 244.375 192.101562 L 220.863281 215.613281 C 219.6875 216.789062 218.511719 217.378906 216.746094 217.378906 Z M 216.746094 217.378906 "/></g><g clip-rule="nonzero" clip-path="url(#51101860b2)"><path style=" stroke:none;fill-rule:nonzero;fill:#ff8888;fill-opacity:1;" d="M 175.597656 229.136719 C 175.007812 229.136719 174.421875 229.136719 173.832031 228.546875 C 170.894531 227.371094 169.132812 224.433594 170.308594 220.90625 L 193.820312 150.363281 C 194.996094 147.425781 197.9375 145.660156 201.460938 146.835938 C 204.402344 148.011719 206.164062 150.953125 204.988281 154.476562 L 181.476562 225.019531 C 180.300781 227.371094 177.949219 229.136719 175.597656 229.136719 Z M 175.597656 229.136719 "/></g><g style="fill:#ff8888;fill-opacity:1;"><g transform="translate(153.60118, 261.490939)"><path style="stroke:none" d="M 1.6875 0 L 1.6875 -12.890625 L 4.625 -12.890625 L 4.890625 -10.71875 C 5.285156 -11.476562 5.859375 -12.082031 6.609375 -12.53125 C 7.367188 -12.976562 8.257812 -13.203125 9.28125 -13.203125 C 10.875 -13.203125 12.113281 -12.695312 13 -11.6875 C 13.882812 -10.6875 14.328125 -9.21875 14.328125 -7.28125 L 14.328125 0 L 11 0 L 11 -6.96875 C 11 -8.070312 10.769531 -8.921875 10.3125 -9.515625 C 9.863281 -10.109375 9.164062 -10.40625 8.21875 -10.40625 C 7.28125 -10.40625 6.507812 -10.070312 5.90625 -9.40625 C 5.3125 -8.75 5.015625 -7.832031 5.015625 -6.65625 L 5.015625 0 Z M 1.6875 0 "/></g></g><g style="fill:#ff8888;fill-opacity:1;"><g transform="translate(169.404451, 261.490939)"><path style="stroke:none" d="M 3.484375 -14.890625 C 2.878906 -14.890625 2.378906 -15.070312 1.984375 -15.4375 C 1.597656 -15.800781 1.40625 -16.265625 1.40625 -16.828125 C 1.40625 -17.378906 1.597656 -17.832031 1.984375 -18.1875 C 2.378906 -18.539062 2.878906 -18.71875 3.484375 -18.71875 C 4.085938 -18.71875 4.582031 -18.539062 4.96875 -18.1875 C 5.363281 -17.832031 5.5625 -17.378906 5.5625 -16.828125 C 5.5625 -16.265625 5.363281 -15.800781 4.96875 -15.4375 C 4.582031 -15.070312 4.085938 -14.890625 3.484375 -14.890625 Z M 1.8125 0 L 1.8125 -12.890625 L 5.140625 -12.890625 L 5.140625 0 Z M 1.8125 0 "/></g></g><g style="fill:#ff8888;fill-opacity:1;"><g transform="translate(176.344377, 261.490939)"><path style="stroke:none" d="M 8.015625 0.3125 C 6.691406 0.3125 5.523438 0.0234375 4.515625 -0.546875 C 3.515625 -1.117188 2.722656 -1.914062 2.140625 -2.9375 C 1.566406 -3.957031 1.28125 -5.128906 1.28125 -6.453125 C 1.28125 -7.765625 1.566406 -8.929688 2.140625 -9.953125 C 2.722656 -10.972656 3.515625 -11.769531 4.515625 -12.34375 C 5.523438 -12.914062 6.691406 -13.203125 8.015625 -13.203125 C 9.660156 -13.203125 11.046875 -12.773438 12.171875 -11.921875 C 13.296875 -11.066406 14.015625 -9.882812 14.328125 -8.375 L 10.8125 -8.375 C 10.644531 -9 10.300781 -9.488281 9.78125 -9.84375 C 9.269531 -10.195312 8.671875 -10.375 7.984375 -10.375 C 7.066406 -10.375 6.285156 -10.023438 5.640625 -9.328125 C 5.003906 -8.640625 4.6875 -7.679688 4.6875 -6.453125 C 4.6875 -5.222656 5.003906 -4.257812 5.640625 -3.5625 C 6.285156 -2.863281 7.066406 -2.515625 7.984375 -2.515625 C 8.671875 -2.515625 9.269531 -2.6875 9.78125 -3.03125 C 10.300781 -3.382812 10.644531 -3.882812 10.8125 -4.53125 L 14.328125 -4.53125 C 14.015625 -3.070312 13.296875 -1.898438 12.171875 -1.015625 C 11.046875 -0.128906 9.660156 0.3125 8.015625 0.3125 Z M 8.015625 0.3125 "/></g></g><g style="fill:#ff8888;fill-opacity:1;"><g transform="translate(191.939709, 261.490939)"><path style="stroke:none" d="M 1.6875 0 L 1.6875 -18.71875 L 5.015625 -18.71875 L 5.015625 -10.921875 C 5.453125 -11.628906 6.035156 -12.1875 6.765625 -12.59375 C 7.503906 -13 8.351562 -13.203125 9.3125 -13.203125 C 10.90625 -13.203125 12.140625 -12.695312 13.015625 -11.6875 C 13.890625 -10.6875 14.328125 -9.21875 14.328125 -7.28125 L 14.328125 0 L 11.03125 0 L 11.03125 -6.96875 C 11.03125 -8.070312 10.804688 -8.921875 10.359375 -9.515625 C 9.921875 -10.109375 9.222656 -10.40625 8.265625 -10.40625 C 7.328125 -10.40625 6.550781 -10.070312 5.9375 -9.40625 C 5.320312 -8.75 5.015625 -7.832031 5.015625 -6.65625 L 5.015625 0 Z M 1.6875 0 "/></g></g><g style="fill:#ff8888;fill-opacity:1;"><g transform="translate(207.74298, 261.490939)"><path style="stroke:none" d="M 7.015625 0.3125 C 5.867188 0.3125 4.863281 0.125 4 -0.25 C 3.132812 -0.625 2.441406 -1.140625 1.921875 -1.796875 C 1.398438 -2.453125 1.085938 -3.210938 0.984375 -4.078125 L 4.34375 -4.078125 C 4.445312 -3.578125 4.726562 -3.148438 5.1875 -2.796875 C 5.644531 -2.441406 6.238281 -2.265625 6.96875 -2.265625 C 7.695312 -2.265625 8.226562 -2.410156 8.5625 -2.703125 C 8.90625 -2.992188 9.078125 -3.332031 9.078125 -3.71875 C 9.078125 -4.269531 8.832031 -4.644531 8.34375 -4.84375 C 7.863281 -5.039062 7.1875 -5.238281 6.3125 -5.4375 C 5.757812 -5.550781 5.195312 -5.695312 4.625 -5.875 C 4.050781 -6.050781 3.523438 -6.269531 3.046875 -6.53125 C 2.578125 -6.800781 2.191406 -7.148438 1.890625 -7.578125 C 1.597656 -8.003906 1.453125 -8.53125 1.453125 -9.15625 C 1.453125 -10.300781 1.90625 -11.257812 2.8125 -12.03125 C 3.726562 -12.8125 5.007812 -13.203125 6.65625 -13.203125 C 8.175781 -13.203125 9.390625 -12.847656 10.296875 -12.140625 C 11.210938 -11.429688 11.757812 -10.453125 11.9375 -9.203125 L 8.78125 -9.203125 C 8.59375 -10.160156 7.875 -10.640625 6.625 -10.640625 C 6 -10.640625 5.519531 -10.515625 5.1875 -10.265625 C 4.851562 -10.023438 4.6875 -9.722656 4.6875 -9.359375 C 4.6875 -8.972656 4.9375 -8.664062 5.4375 -8.4375 C 5.9375 -8.21875 6.601562 -8.015625 7.4375 -7.828125 C 8.332031 -7.617188 9.15625 -7.390625 9.90625 -7.140625 C 10.664062 -6.890625 11.269531 -6.515625 11.71875 -6.015625 C 12.175781 -5.523438 12.40625 -4.820312 12.40625 -3.90625 C 12.414062 -3.101562 12.203125 -2.378906 11.765625 -1.734375 C 11.335938 -1.097656 10.71875 -0.597656 9.90625 -0.234375 C 9.09375 0.128906 8.128906 0.3125 7.015625 0.3125 Z M 7.015625 0.3125 "/></g></g></g></svg>